<svg width="32" height="25" viewBox="0 0 32 25" fill="none" xmlns="http://www.w3.org/2000/svg">
<path fill-rule="evenodd" clip-rule="evenodd" d="M27.107 2.09374C25.0356 1.11562 22.8208 0.404768 20.5052 0C20.2208 0.518898 19.8886 1.21683 19.6595 1.77203C17.198 1.39843 14.7591 1.39843 12.3429 1.77203C12.1139 1.21683 11.7741 0.518898 11.4871 0C9.16908 0.404768 6.95167 1.11824 4.88026 2.09892C0.70219 8.47087 -0.430415 14.6845 0.135889 20.81C2.907 22.8985 5.59255 24.1672 8.23277 24.9974C8.88465 24.092 9.46605 23.1294 9.9669 22.115C9.013 21.7492 8.09937 21.2978 7.2361 20.7737C7.46512 20.6024 7.68914 20.4234 7.90557 20.2392C13.1709 22.7247 18.8919 22.7247 24.0943 20.2392C24.3133 20.4234 24.5373 20.6024 24.7638 20.7737C23.898 21.3003 22.9818 21.7518 22.0279 22.1176C22.5288 23.1294 23.1077 24.0946 23.7621 25C26.4048 24.1698 29.0929 22.9011 31.864 20.81C32.5285 13.709 30.7289 7.55243 27.107 2.09374ZM10.6842 17.0429C9.10363 17.0429 7.8074 15.5537 7.8074 13.7402C7.8074 11.9266 9.07595 10.4349 10.6842 10.4349C12.2926 10.4349 13.5887 11.924 13.5611 13.7402C13.5636 15.5537 12.2926 17.0429 10.6842 17.0429ZM18.4388 13.7402C18.4388 15.5537 19.7351 17.0429 21.3157 17.0429C22.9239 17.0429 24.1925 15.5537 24.1925 13.7402C24.2202 11.924 22.9239 10.4349 21.3157 10.4349C19.7073 10.4349 18.4388 11.9266 18.4388 13.7402Z" fill="#888888"/>
</svg>
