<svg width="32" height="24" viewBox="0 0 32 24" fill="none" xmlns="http://www.w3.org/2000/svg">
<path d="M2.18182 23.9999H7.27273V11.6392L0 6.18604V21.8186C0 23.0237 0.976364 23.9999 2.18182 23.9999Z" fill="#888888"/>
<path d="M24.7271 23.9999H29.818C31.0234 23.9999 31.9998 23.0237 31.9998 21.8186V6.18604L24.7271 11.6392V23.9999Z" fill="#888888"/>
<path d="M24.7271 2.18716V11.6394L31.9998 6.18618V3.2778C31.9998 0.5821 28.9216 -0.957523 26.7634 0.660263L24.7271 2.18716Z" fill="#888888"/>
<path fill-rule="evenodd" clip-rule="evenodd" d="M7.27295 11.6392V2.18701L16.0002 8.73086L24.7275 2.18701V11.6392L16.0002 18.1831L7.27295 11.6392Z" fill="#888888"/>
<path d="M0 3.2778V6.18618L7.27273 11.6394V2.18716L5.23636 0.660263C3.07818 -0.957523 0 0.5821 0 3.2778Z" fill="#888888"/>
</svg>
