<svg width="32" height="32" viewBox="0 0 32 32" fill="none" xmlns="http://www.w3.org/2000/svg">
<path fill-rule="evenodd" clip-rule="evenodd" d="M16 0C11.6547 0 11.1098 0.0184185 9.40322 0.0962843C7.70021 0.17396 6.53711 0.444458 5.51939 0.840011C4.46725 1.24884 3.57497 1.79593 2.68542 2.68542C1.79593 3.57497 1.24884 4.46725 0.840011 5.51939C0.444458 6.53711 0.17396 7.70021 0.0962843 9.40322C0.0184185 11.1098 0 11.6547 0 16C0 20.3453 0.0184185 20.8902 0.0962843 22.5968C0.17396 24.2998 0.444458 25.4629 0.840011 26.4806C1.24884 27.5327 1.79593 28.425 2.68542 29.3146C3.57497 30.2041 4.46725 30.7512 5.51939 31.1601C6.53711 31.5555 7.70021 31.826 9.40322 31.9037C11.1098 31.9816 11.6547 32 16 32C20.3453 32 20.8902 31.9816 22.5968 31.9037C24.2998 31.826 25.4629 31.5555 26.4806 31.1601C27.5327 30.7512 28.425 30.2041 29.3146 29.3146C30.2041 28.425 30.7512 27.5327 31.1601 26.4806C31.5555 25.4629 31.826 24.2998 31.9037 22.5968C31.9816 20.8902 32 20.3453 32 16C32 11.6547 31.9816 11.1098 31.9037 9.40322C31.826 7.70021 31.5555 6.53711 31.1601 5.51939C30.7512 4.46725 30.2041 3.57497 29.3146 2.68542C28.425 1.79593 27.5327 1.24884 26.4806 0.840011C25.4629 0.444458 24.2998 0.17396 22.5968 0.0962843C20.8902 0.0184185 20.3453 0 16 0ZM16 2.88288C20.2722 2.88288 20.7782 2.8992 22.4654 2.97618C24.0254 3.04731 24.8725 3.30796 25.4363 3.52708C26.1832 3.81733 26.7162 4.16404 27.276 4.72397C27.836 5.28383 28.1827 5.81682 28.4729 6.56366C28.692 7.12745 28.9527 7.97464 29.0238 9.53463C29.1008 11.2218 29.1171 11.7278 29.1171 16C29.1171 20.2722 29.1008 20.7782 29.0238 22.4654C28.9527 24.0254 28.692 24.8725 28.4729 25.4363C28.1827 26.1832 27.836 26.7162 27.276 27.276C26.7162 27.836 26.1832 28.1827 25.4363 28.4729C24.8725 28.692 24.0254 28.9527 22.4654 29.0238C20.7785 29.1008 20.2725 29.1171 16 29.1171C11.7275 29.1171 11.2216 29.1008 9.53463 29.0238C7.97464 28.9527 7.12745 28.692 6.56366 28.4729C5.81682 28.1827 5.28383 27.836 4.72397 27.276C4.16411 26.7162 3.81733 26.1832 3.52708 25.4363C3.30796 24.8725 3.04731 24.0254 2.97618 22.4654C2.8992 20.7782 2.88288 20.2722 2.88288 16C2.88288 11.7278 2.8992 11.2218 2.97618 9.53463C3.04731 7.97464 3.30796 7.12745 3.52708 6.56366C3.81733 5.81682 4.16404 5.28383 4.72397 4.72397C5.28383 4.16404 5.81682 3.81733 6.56366 3.52708C7.12745 3.30796 7.97464 3.04731 9.53463 2.97618C11.2218 2.8992 11.7278 2.88288 16 2.88288Z" fill="#888888"/>
<path fill-rule="evenodd" clip-rule="evenodd" d="M15.9999 21.3332C13.0544 21.3332 10.6666 18.9454 10.6666 15.9999C10.6666 13.0544 13.0544 10.6666 15.9999 10.6666C18.9454 10.6666 21.3332 13.0544 21.3332 15.9999C21.3332 18.9454 18.9454 21.3332 15.9999 21.3332ZM15.9999 7.78369C11.4622 7.78369 7.78369 11.4622 7.78369 15.9999C7.78369 20.5376 11.4622 24.2161 15.9999 24.2161C20.5376 24.2161 24.2161 20.5376 24.2161 15.9999C24.2161 11.4622 20.5376 7.78369 15.9999 7.78369Z" fill="#888888"/>
<path fill-rule="evenodd" clip-rule="evenodd" d="M26.4609 7.4591C26.4609 8.51949 25.6012 9.37907 24.5408 9.37907C23.4805 9.37907 22.6208 8.51949 22.6208 7.4591C22.6208 6.3987 23.4805 5.53906 24.5408 5.53906C25.6012 5.53906 26.4609 6.3987 26.4609 7.4591Z" fill="#888888"/>
</svg>
