<svg width="24" height="24" viewBox="0 0 24 24" fill="none" xmlns="http://www.w3.org/2000/svg">
<path d="M23.998 24H19.0288V16.2045C19.0288 14.3455 18.9957 11.9525 16.4444 11.9525C13.8562 11.9525 13.4602 13.9778 13.4602 16.0691V23.9994H8.49121V7.96867H13.2615V10.1594H13.3284C14.2997 8.4958 16.1123 7.49848 18.035 7.57001C23.0714 7.57001 24.0001 10.8885 24.0001 15.2058L23.998 24Z" fill="#888888"/>
<path d="M2.88427 5.7773C2.88397 5.7773 2.88382 5.7773 2.88367 5.7773C1.30173 5.7773 0 4.47344 0 2.88873C0 1.30401 1.30173 0 2.88367 0C4.46546 0 5.76704 1.30371 5.76734 2.88813C5.76734 2.88828 5.76734 2.88843 5.76734 2.88873C5.76734 4.47314 4.46591 5.77715 2.88427 5.7773Z" fill="#888888"/>
<path d="M5.36881 24.0001H0.394531V7.96875H5.36881V24.0001Z" fill="#888888"/>
</svg>
