<svg width="32" height="32" viewBox="0 0 32 32" fill="none" xmlns="http://www.w3.org/2000/svg">
<path fill-rule="evenodd" clip-rule="evenodd" d="M8.5333 3.19989C8.5333 1.43287 9.96578 0 11.7331 0C13.5021 0.00177086 14.9349 1.43433 14.9334 3.19989V6.39979H11.7331C10.8836 6.39894 10.0692 6.06133 9.46916 5.46123C8.86908 4.86113 8.53244 4.04771 8.5333 3.19989ZM3.19979 8.53305H11.7331C13.5004 8.53305 14.9334 9.96592 14.9334 11.7335C14.9334 13.5005 13.5004 14.9334 11.7336 14.9334H3.19979C1.43248 14.9334 0 13.5005 0 11.7335C0 9.96592 1.43248 8.53305 3.19979 8.53305Z" fill="#888888"/>
<path fill-rule="evenodd" clip-rule="evenodd" d="M23.4665 3.19989V11.7335V11.734C23.468 13.4996 22.0352 14.9321 20.2662 14.9339C18.4989 14.9339 17.0664 13.501 17.0664 11.7329V3.19989C17.0664 1.43287 18.4989 0 20.2662 0C22.0352 0.00177086 23.468 1.43433 23.4665 3.19989ZM28.7995 8.53305C30.5668 8.53305 31.9998 9.96592 31.9998 11.7335C32.0013 13.499 30.5685 14.9316 28.7995 14.9334H25.5997V11.7335C25.5997 9.96592 27.0322 8.53305 28.7995 8.53305Z" fill="#888888"/>
<path fill-rule="evenodd" clip-rule="evenodd" d="M28.8 23.4667H20.2662V23.4662C19.4167 23.4653 18.6023 23.1277 18.0023 22.5276C17.4022 21.9275 17.0656 21.1141 17.0664 20.2663C17.0664 18.4993 18.4989 17.0664 20.2662 17.0664H28.7995C30.5685 17.0682 32.0013 18.5007 31.9998 20.2663C31.9998 22.0339 30.5668 23.4667 28.8 23.4667ZM23.4665 28.7999C23.468 30.5654 22.0352 31.998 20.2662 31.9998C18.4989 31.9998 17.0664 30.5669 17.0664 28.7999V25.6H20.2662C22.0352 25.6018 23.468 27.0343 23.4665 28.7999Z" fill="#888888"/>
<path fill-rule="evenodd" clip-rule="evenodd" d="M0.935865 22.5276C0.335789 21.9275 -0.000851283 21.1141 1.61671e-06 20.2663C1.61671e-06 18.4993 1.43249 17.0664 3.19979 17.0664H6.40011V20.2663C6.40159 22.0319 4.96884 23.4644 3.19979 23.4662C2.3503 23.4653 1.53594 23.1277 0.935865 22.5276ZM8.5333 28.7993V20.2663C8.5333 18.4993 9.96578 17.0664 11.7331 17.0664C12.5827 17.0671 13.3972 17.4047 13.9974 18.0048C14.5975 18.6049 14.9343 19.4184 14.9334 20.2663V28.7999C14.9349 30.5654 13.5021 31.998 11.7331 31.9998C9.96578 31.9998 8.5333 30.5669 8.5333 28.7993Z" fill="#888888"/>
</svg>
